<svg width="28" height="28" viewBox="0 0 28 28" fill="none" xmlns="http://www.w3.org/2000/svg">
<path d="M13.9972 7.58742C12.2974 7.58742 10.6673 8.26264 9.46544 9.46454C8.26354 10.6664 7.58832 12.2966 7.58832 13.9963C7.58832 15.696 8.26354 17.3261 9.46544 18.528C10.6673 19.7299 12.2974 20.4052 13.9972 20.4052C15.6969 20.4052 17.327 19.7299 18.5289 18.528C19.7308 17.3261 20.406 15.696 20.406 13.9963C20.406 12.2966 19.7308 10.6664 18.5289 9.46454C17.327 8.26264 15.6969 7.58742 13.9972 7.58742ZM13.9972 18.1584C12.8929 18.1584 11.8339 17.7198 11.0531 16.939C10.2723 16.1582 9.83364 15.0991 9.83364 13.9949C9.83364 12.8907 10.2723 11.8316 11.0531 11.0508C11.8339 10.27 12.8929 9.83136 13.9972 9.83136C15.1014 9.83136 16.1604 10.27 16.9413 11.0508C17.7221 11.8316 18.1607 12.8907 18.1607 13.9949C18.1607 15.0991 17.7221 16.1582 16.9413 16.939C16.1604 17.7198 15.1014 18.1584 13.9972 18.1584Z" fill="#52525B"/>
<path d="M20.6597 8.84591C21.4849 8.84591 22.1538 8.17698 22.1538 7.3518C22.1538 6.52663 21.4849 5.8577 20.6597 5.8577C19.8345 5.8577 19.1656 6.52663 19.1656 7.3518C19.1656 8.17698 19.8345 8.84591 20.6597 8.84591Z" fill="#52525B"/>
<path d="M25.8253 5.83275C25.5045 5.00417 25.0141 4.25171 24.3857 3.62355C23.7573 2.99538 23.0047 2.50534 22.176 2.1848C21.2062 1.82077 20.1818 1.62394 19.1462 1.60268C17.8115 1.54446 17.3887 1.52783 14.0041 1.52783C10.6195 1.52783 10.1857 1.52783 8.86206 1.60268C7.82725 1.62285 6.80351 1.81973 5.83503 2.1848C5.00612 2.50496 4.25328 2.99487 3.62482 3.62309C2.99637 4.2513 2.50618 5.00395 2.18569 5.83275C1.8216 6.80241 1.62522 7.82698 1.60496 8.86254C1.54536 10.1959 1.52734 10.6186 1.52734 14.0046C1.52734 17.3892 1.52734 17.8203 1.60496 19.1467C1.62575 20.1834 1.82118 21.2063 2.18569 22.1778C2.50708 23.0063 2.99775 23.7587 3.62635 24.3868C4.25496 25.0149 5.00768 25.505 5.83642 25.8258C6.80306 26.2044 7.82723 26.4154 8.86483 26.4495C10.1995 26.5077 10.6223 26.5257 14.0069 26.5257C17.3915 26.5257 17.8253 26.5257 19.1489 26.4495C20.1844 26.4284 21.2089 26.2321 22.1787 25.8688C23.0072 25.5475 23.7596 25.057 24.388 24.4287C25.0163 23.8003 25.5068 23.0479 25.8281 22.2194C26.1926 21.2492 26.388 20.2264 26.4088 19.1896C26.4684 17.8563 26.4864 17.4336 26.4864 14.0476C26.4864 10.6616 26.4864 10.2319 26.4088 8.90551C26.3927 7.8553 26.1953 6.81577 25.8253 5.83275ZM24.1372 19.0441C24.1282 19.8429 23.9824 20.6342 23.7061 21.3837C23.498 21.9226 23.1793 22.4121 22.7707 22.8205C22.362 23.2289 21.8724 23.5473 21.3333 23.7551C20.5921 24.0302 19.8092 24.176 19.0187 24.1862C17.702 24.2471 17.3305 24.2624 13.9542 24.2624C10.5752 24.2624 10.23 24.2624 8.88839 24.1862C8.09827 24.1765 7.31573 24.0307 6.57516 23.7551C6.03418 23.5486 5.54259 23.2308 5.13218 22.8223C4.72177 22.4138 4.40168 21.9237 4.19262 21.3837C3.9202 20.6422 3.77448 19.8602 3.76158 19.0704C3.70198 17.7537 3.68812 17.3823 3.68812 14.006C3.68812 10.6283 3.68812 10.2832 3.76158 8.94016C3.77053 8.14185 3.91633 7.351 4.19262 6.60198C4.61535 5.50842 5.4816 4.64772 6.57516 4.22915C7.3161 3.95491 8.0984 3.80914 8.88839 3.7981C10.2065 3.7385 10.5765 3.72187 13.9542 3.72187C17.3319 3.72187 17.6784 3.72187 19.0187 3.7981C19.8093 3.80761 20.5923 3.95343 21.3333 4.22915C21.8723 4.43742 22.3619 4.75611 22.7705 5.16474C23.1792 5.57337 23.4978 6.06292 23.7061 6.60198C23.9785 7.34342 24.1243 8.12541 24.1372 8.91521C24.1968 10.2333 24.212 10.6034 24.212 13.981C24.212 17.3573 24.212 17.7205 24.1524 19.0455H24.1372V19.0441Z" fill="#52525B"/>
</svg>
