<svg width="28" height="28" viewBox="0 0 28 28" fill="#376cff" xmlns="http://www.w3.org/2000/svg">
<path d="M14.0003 15.5933C15.3667 15.5933 16.4743 14.4856 16.4743 13.1193C16.4743 11.7529 15.3667 10.6453 14.0003 10.6453C12.634 10.6453 11.5263 11.7529 11.5263 13.1193C11.5263 14.4856 12.634 15.5933 14.0003 15.5933Z" fill="#376cff"/>
<path d="M7.0731 18.0382L6.52563 17.8982C2.4591 16.8712 0.126465 15.1248 0.126465 13.1137C0.126465 11.1013 2.46049 9.3563 6.52563 8.32927L7.0731 8.19067L7.22694 8.7326C7.63795 10.1514 8.16454 11.5342 8.80144 12.867L8.91925 13.1137L8.80144 13.3605C8.16388 14.6952 7.63581 16.0784 7.22694 17.4977L7.0731 18.0382ZM6.27338 9.59053C3.18398 10.4609 1.28655 11.7887 1.28655 13.1137C1.28655 14.436 3.1826 15.7652 6.27338 16.6342C6.65175 15.4311 7.10913 14.2544 7.63859 13.1137C7.1053 11.9712 6.64921 10.7941 6.27338 9.59053ZM20.9262 18.0382L20.7737 17.4949C20.3616 16.0758 19.8346 14.6926 19.1978 13.3591L19.08 13.1137L19.1978 12.8657C19.8354 11.5337 20.3607 10.1491 20.7737 8.72983L20.9262 8.18929L21.4736 8.32789C25.5415 9.35491 27.8728 11.0999 27.8728 13.1137C27.8728 15.1262 25.5402 16.8712 21.4736 17.8982L20.9262 18.0382ZM20.3579 13.1137C20.9123 14.314 21.3738 15.4949 21.7259 16.6342C24.8167 15.7652 26.7141 14.436 26.7141 13.1137C26.7141 11.7887 24.8181 10.4623 21.7259 9.59053C21.3479 10.7938 20.8909 11.9707 20.3579 13.1137Z" fill="#376cff"/>
<path d="M6.26506 9.58499L6.1126 9.04445C4.96776 5.01396 5.31426 2.12692 7.06478 1.12069C8.77649 0.129697 11.5305 1.30087 14.4147 4.25998L14.8084 4.66469L14.4147 5.06801C13.3903 6.13341 12.454 7.28016 11.615 8.49698L11.4584 8.72151L11.1867 8.74369C9.71146 8.85955 8.24808 9.09549 6.81114 9.44916L6.26506 9.58499ZM8.45771 1.92179C8.14725 1.92179 7.87282 1.98971 7.64136 2.12276C6.49375 2.78389 6.29139 5.08603 7.08141 8.19344C8.31634 7.9204 9.56235 7.72498 10.8181 7.61548C11.545 6.58437 12.3381 5.60149 13.1923 4.673C11.3863 2.91694 9.68155 1.92179 8.45771 1.92179ZM19.5416 25.4616C17.895 25.4616 15.7799 24.2198 13.5845 21.9661L13.1923 21.5628L13.5845 21.1609C14.6091 20.0937 15.5459 18.9456 16.3856 17.7277L16.5409 17.506L16.8097 17.4796C18.2855 17.3658 19.7495 17.1308 21.1867 16.7769L21.7342 16.6383L21.8881 17.1803C23.0273 21.208 22.6822 24.0992 20.9345 25.1054C20.5101 25.346 20.0293 25.4689 19.5416 25.4616ZM14.8084 21.5531C16.6129 23.3092 18.3191 24.3057 19.5416 24.3057C19.8534 24.3057 20.1278 24.2364 20.3579 24.1047C21.5069 23.4422 21.7106 21.1359 20.9179 18.0285C19.6843 18.3029 18.4369 18.4997 17.1784 18.6092C16.4545 19.642 15.6628 20.6254 14.8084 21.5531Z" fill="#376cff"/>
<path d="M21.7342 9.58499L21.1867 9.44777C19.7495 9.093 18.2856 8.85705 16.8097 8.7423L16.5409 8.71874L16.3856 8.49421C15.547 7.27672 14.6102 6.12991 13.5845 5.06524L13.1923 4.66192L13.5845 4.25998C16.4674 1.30225 19.22 0.131083 20.9345 1.12069C22.6836 2.12831 23.0315 5.01535 21.8881 9.04445L21.7342 9.58499ZM17.1784 7.61548C18.5007 7.73329 19.7536 7.93149 20.9178 8.19344C21.7093 5.08603 21.5069 2.78389 20.3579 2.12138C19.2158 1.46026 17.0662 2.47204 14.8084 4.673C15.6621 5.60162 16.4549 6.58291 17.1784 7.61548ZM8.45771 25.4616C7.97002 25.4686 7.48926 25.3456 7.06478 25.1054C5.31426 24.0992 4.96776 21.2094 6.11121 17.1803L6.2609 16.6383L6.80837 16.7769C8.14447 17.1137 9.61641 17.3507 11.1854 17.4796L11.4542 17.506L11.6109 17.7277C12.448 18.9446 13.3849 20.0936 14.4106 21.1609L14.8042 21.5628L14.4106 21.9661C12.2165 24.2211 10.1015 25.4616 8.45771 25.4616ZM7.08141 18.0299C6.29139 21.1373 6.49375 23.4436 7.64136 24.1061C8.78481 24.7575 10.9276 23.7527 13.1923 21.5531C12.3384 20.6243 11.5454 19.6415 10.8181 18.6106C9.5611 18.4995 8.31283 18.3055 7.08141 18.0299Z" fill="#376cff"/>
<path d="M14.0003 18.7575C13.0481 18.7575 12.071 18.7173 11.0897 18.6356L10.8181 18.612L10.6615 18.3875C10.1081 17.5918 9.58745 16.7738 9.10082 15.9356C8.61778 15.0952 8.16881 14.2357 7.75501 13.3591L7.63859 13.1137L7.75501 12.8657C8.16942 11.9897 8.6171 11.1304 9.10082 10.2905C9.58176 9.46441 10.1071 8.63835 10.6615 7.83724L10.8181 7.61548L11.0897 7.59053C13.0258 7.42837 14.9721 7.42837 16.9082 7.59053L17.177 7.61687L17.3337 7.83863C18.4422 9.4308 19.4158 11.1128 20.2443 12.867L20.3593 13.1151L20.2443 13.3605C19.418 15.1159 18.4444 16.7981 17.3337 18.3889L17.177 18.6134L16.9082 18.637C15.9296 18.716 14.9511 18.7575 14.0003 18.7575ZM11.4584 17.5046C13.1701 17.6335 14.8305 17.6349 16.5409 17.506C17.4957 16.1078 18.3444 14.6387 19.08 13.1137C18.347 11.5874 17.4981 10.1195 16.5409 8.7229C14.8492 8.59261 13.1501 8.59261 11.4584 8.7229C10.5003 10.119 9.65141 11.587 8.91925 13.1137C9.65643 14.6378 10.5051 16.1055 11.4584 17.5046Z" fill="#376cff"/>
</svg>
